# MagicaVoxel @ ephtracy

# material
mtllib scythian.mtl
usemtl palette

# normals
vn -1 0 0
vn 1 0 0
vn 0 0 1
vn 0 0 -1
vn 0 -1 0
vn 0 1 0

# texcoords
vt 0.185547 0.5
vt 0.341797 0.5
vt 0.369141 0.5
vt 0.373047 0.5
vt 0.533203 0.5
vt 0.537109 0.5
vt 0.677734 0.5
vt 0.876953 0.5
vt 0.958984 0.5

# verts
v -5 16 -1.5
v -5 16 -2.5
v -5 22 -1.5
v -5 22 -2.5
v -4 8 0.5
v -4 8 -0.5
v -4 10 0.5
v -4 10 -0.5
v -4 16 0.5
v -4 16 -0.5
v -4 17 0.5
v -4 17 -0.5
v -4 19 0.5
v -4 19 -0.5
v -3 18 1.5
v -3 18 0.5
v -3 19 0.5
v -3 19 -0.5
v -3 20 1.5
v -3 20 -0.5
v -2 0 1.5
v -2 0 0.5
v -2 6 1.5
v -2 6 0.5
v -2 9 1.5
v -2 9 0.5
v -2 10 1.5
v -2 10 0.5
v -2 10 -0.5
v -2 12 1.5
v -2 12 -0.5
v -2 17 0.5
v -2 17 -0.5
v -2 17 -1.5
v -2 18 1.5
v -2 18 0.5
v -2 18 -0.5
v -2 18 -1.5
v -2 19 -0.5
v -2 19 -1.5
v -2 20 -0.5
v -2 20 -1.5
v -1 12 2.5
v -1 12 1.5
v -1 12 -0.5
v -1 12 -1.5
v -1 15 2.5
v -1 15 1.5
v -1 16 2.5
v -1 16 1.5
v -1 16 -1.5
v -1 17 2.5
v -1 17 1.5
v -1 17 -0.5
v -1 17 -1.5
v -1 18 2.5
v -1 18 1.5
v -1 19 1.5
v -1 20 1.5
v -1 20 0.5
v -1 20 -0.5
v -1 21 2.5
v -1 21 1.5
v -1 24 1.5
v -1 24 -0.5
v 0 19 -0.5
v 0 19 -1.5
v 0 21 -1.5
v 0 22 -1.5
v 0 23 -0.5
v 0 23 -1.5
v 1 19 1.5
v 1 19 0.5
v 1 20 1.5
v 1 20 0.5
v 2 0 1.5
v 2 0 0.5
v 2 6 1.5
v 2 6 0.5
v 2 9 1.5
v 2 9 0.5
v 2 10 1.5
v 2 10 0.5
v 4 8 0.5
v 4 8 -0.5
v 4 10 0.5
v 4 10 -0.5
v 4 16 0.5
v 4 16 -0.5
v 4 17 0.5
v 4 17 -0.5
v -3 8 0.5
v -3 8 -0.5
v -3 10 0.5
v -3 10 -0.5
v -3 16 0.5
v -3 16 -0.5
v -3 17 0.5
v -3 17 -0.5
v -1 0 1.5
v -1 0 0.5
v -1 6 1.5
v -1 6 0.5
v -1 9 1.5
v -1 9 0.5
v -1 10 1.5
v -1 10 0.5
v -1 19 -0.5
v -1 19 -1.5
v -1 20 -0.5
v -1 20 -1.5
v 0 18 2.5
v 0 18 1.5
v 0 19 1.5
v 0 19 0.5
v 0 20 1.5
v 0 20 0.5
v 0 21 2.5
v 0 21 1.5
v 0 21 0.5
v 1 16 -1.5
v 1 16 -2.5
v 1 17 -1.5
v 1 17 -2.5
v 1 21 -1.5
v 1 21 -2.5
v 1 22 -1.5
v 1 22 -2.5
v 2 12 2.5
v 2 12 1.5
v 2 12 -0.5
v 2 12 -1.5
v 2 15 2.5
v 2 15 1.5
v 2 16 2.5
v 2 16 1.5
v 2 17 2.5
v 2 17 1.5
v 2 17 -0.5
v 2 17 -1.5
v 2 17 -2.5
v 2 18 2.5
v 2 18 1.5
v 2 19 -1.5
v 2 20 0.5
v 2 20 -0.5
v 2 20 -1.5
v 2 21 1.5
v 2 21 0.5
v 2 21 -0.5
v 2 21 -1.5
v 2 21 -2.5
v 2 23 1.5
v 2 23 -0.5
v 2 23 -1.5
v 2 24 1.5
v 2 24 -0.5
v 3 0 1.5
v 3 0 0.5
v 3 6 1.5
v 3 6 0.5
v 3 9 1.5
v 3 9 0.5
v 3 10 1.5
v 3 10 0.5
v 3 10 -0.5
v 3 12 1.5
v 3 12 -0.5
v 3 17 0.5
v 3 17 -0.5
v 3 17 -1.5
v 3 18 1.5
v 3 18 0.5
v 3 18 -0.5
v 3 19 -0.5
v 3 19 -1.5
v 3 20 -0.5
v 3 20 -1.5
v 4 18 1.5
v 4 18 0.5
v 4 19 0.5
v 4 19 -0.5
v 4 20 1.5
v 4 20 -0.5
v 5 8 0.5
v 5 8 -0.5
v 5 10 0.5
v 5 10 -0.5
v 5 16 0.5
v 5 16 -0.5
v 5 17 0.5
v 5 17 -0.5
v 5 19 0.5
v 5 19 -0.5
v -1 12 2.5
v -1 15 2.5
v -1 16 2.5
v -1 17 2.5
v -1 18 2.5
v -1 21 2.5
v 0 15 2.5
v 0 16 2.5
v 0 17 2.5
v 0 18 2.5
v 0 21 2.5
v 1 15 2.5
v 1 16 2.5
v 1 17 2.5
v 1 18 2.5
v 2 12 2.5
v 2 15 2.5
v 2 16 2.5
v 2 17 2.5
v 2 18 2.5
v -3 18 1.5
v -3 20 1.5
v -2 0 1.5
v -2 6 1.5
v -2 9 1.5
v -2 10 1.5
v -2 12 1.5
v -2 18 1.5
v -2 19 1.5
v -1 0 1.5
v -1 6 1.5
v -1 9 1.5
v -1 10 1.5
v -1 12 1.5
v -1 15 1.5
v -1 16 1.5
v -1 17 1.5
v -1 18 1.5
v -1 19 1.5
v -1 20 1.5
v -1 21 1.5
v -1 24 1.5
v 0 18 1.5
v 0 19 1.5
v 0 21 1.5
v 0 23 1.5
v 1 18 1.5
v 1 19 1.5
v 1 20 1.5
v 2 0 1.5
v 2 6 1.5
v 2 9 1.5
v 2 10 1.5
v 2 12 1.5
v 2 15 1.5
v 2 16 1.5
v 2 17 1.5
v 2 18 1.5
v 2 19 1.5
v 2 21 1.5
v 2 23 1.5
v 2 24 1.5
v 3 0 1.5
v 3 6 1.5
v 3 9 1.5
v 3 10 1.5
v 3 12 1.5
v 3 18 1.5
v 3 19 1.5
v 4 18 1.5
v 4 20 1.5
v -4 8 0.5
v -4 10 0.5
v -4 16 0.5
v -4 17 0.5
v -4 19 0.5
v -3 8 0.5
v -3 10 0.5
v -3 16 0.5
v -3 17 0.5
v -3 18 0.5
v -3 19 0.5
v -2 17 0.5
v -2 18 0.5
v 0 19 0.5
v 0 20 0.5
v 0 21 0.5
v 1 19 0.5
v 1 20 0.5
v 1 21 0.5
v 2 20 0.5
v 2 21 0.5
v 3 17 0.5
v 3 18 0.5
v 4 8 0.5
v 4 10 0.5
v 4 16 0.5
v 4 17 0.5
v 4 18 0.5
v 4 19 0.5
v 5 8 0.5
v 5 10 0.5
v 5 16 0.5
v 5 17 0.5
v 5 19 0.5
v -5 16 -1.5
v -5 22 -1.5
v -4 17 -1.5
v -4 21 -1.5
v -3 18 -1.5
v -3 20 -1.5
v -2 17 -1.5
v -2 18 -1.5
v -2 19 -1.5
v -2 20 -1.5
v -1 16 -1.5
v -1 17 -1.5
v -1 19 -1.5
v -1 20 -1.5
v 0 19 -1.5
v 0 21 -1.5
v 0 22 -1.5
v -2 0 0.5
v -2 6 0.5
v -2 9 0.5
v -2 10 0.5
v -1 0 0.5
v -1 6 0.5
v -1 9 0.5
v -1 10 0.5
v 2 0 0.5
v 2 6 0.5
v 2 9 0.5
v 2 10 0.5
v 3 0 0.5
v 3 6 0.5
v 3 9 0.5
v 3 10 0.5
v -4 8 -0.5
v -4 10 -0.5
v -4 16 -0.5
v -4 17 -0.5
v -4 19 -0.5
v -3 8 -0.5
v -3 10 -0.5
v -3 16 -0.5
v -3 17 -0.5
v -3 18 -0.5
v -3 19 -0.5
v -3 20 -0.5
v -2 10 -0.5
v -2 12 -0.5
v -2 17 -0.5
v -2 18 -0.5
v -2 19 -0.5
v -2 20 -0.5
v -1 12 -0.5
v -1 17 -0.5
v -1 19 -0.5
v -1 20 -0.5
v -1 24 -0.5
v 0 19 -0.5
v 0 23 -0.5
v 2 12 -0.5
v 2 17 -0.5
v 2 23 -0.5
v 2 24 -0.5
v 3 10 -0.5
v 3 12 -0.5
v 3 17 -0.5
v 3 18 -0.5
v 3 19 -0.5
v 3 20 -0.5
v 4 8 -0.5
v 4 10 -0.5
v 4 16 -0.5
v 4 17 -0.5
v 4 18 -0.5
v 4 19 -0.5
v 4 20 -0.5
v 5 8 -0.5
v 5 10 -0.5
v 5 16 -0.5
v 5 17 -0.5
v 5 19 -0.5
v -1 12 -1.5
v -1 16 -1.5
v 0 22 -1.5
v 0 23 -1.5
v 1 16 -1.5
v 1 17 -1.5
v 1 21 -1.5
v 1 22 -1.5
v 2 12 -1.5
v 2 17 -1.5
v 2 19 -1.5
v 2 20 -1.5
v 2 21 -1.5
v 2 23 -1.5
v 3 17 -1.5
v 3 19 -1.5
v 3 20 -1.5
v -5 16 -2.5
v -5 22 -2.5
v -4 17 -2.5
v -4 21 -2.5
v -3 18 -2.5
v -3 20 -2.5
v -1 18 -2.5
v -1 20 -2.5
v 0 17 -2.5
v 0 21 -2.5
v 1 16 -2.5
v 1 17 -2.5
v 1 21 -2.5
v 1 22 -2.5
v 2 17 -2.5
v 2 21 -2.5
v -2 0 1.5
v -1 0 1.5
v 2 0 1.5
v 3 0 1.5
v -2 0 0.5
v -1 0 0.5
v 2 0 0.5
v 3 0 0.5
v -4 8 0.5
v -3 8 0.5
v 4 8 0.5
v 5 8 0.5
v -4 8 -0.5
v -3 8 -0.5
v 4 8 -0.5
v 5 8 -0.5
v -1 10 1.5
v 2 10 1.5
v -2 10 0.5
v -1 10 0.5
v 2 10 0.5
v 3 10 0.5
v -2 10 -0.5
v 3 10 -0.5
v -1 12 2.5
v 2 12 2.5
v -1 12 1.5
v 2 12 1.5
v -1 12 -0.5
v 2 12 -0.5
v -1 12 -1.5
v 2 12 -1.5
v -5 16 -1.5
v -1 16 -1.5
v 1 16 -1.5
v -5 16 -2.5
v 1 16 -2.5
v -3 17 0.5
v -2 17 0.5
v 3 17 0.5
v 4 17 0.5
v -3 17 -0.5
v -2 17 -0.5
v -1 17 -0.5
v 2 17 -0.5
v 3 17 -0.5
v 4 17 -0.5
v -2 17 -1.5
v -1 17 -1.5
v 1 17 -1.5
v 2 17 -1.5
v 3 17 -1.5
v 1 17 -2.5
v 2 17 -2.5
v -3 18 1.5
v -2 18 1.5
v 3 18 1.5
v 4 18 1.5
v -3 18 0.5
v -2 18 0.5
v 3 18 0.5
v 4 18 0.5
v 0 21 1.5
v 2 21 1.5
v 0 21 0.5
v 1 21 0.5
v 2 21 0.5
v 0 18 2.5
v 1 18 2.5
v 2 18 2.5
v 0 18 1.5
v 1 18 1.5
v 2 18 1.5
v 0 19 1.5
v 1 19 1.5
v -4 19 0.5
v -3 19 0.5
v 0 19 0.5
v 1 19 0.5
v 4 19 0.5
v 5 19 0.5
v -4 19 -0.5
v -3 19 -0.5
v -1 19 -0.5
v 0 19 -0.5
v 4 19 -0.5
v 5 19 -0.5
v -1 19 -1.5
v 0 19 -1.5
v -3 20 1.5
v -1 20 1.5
v 1 20 1.5
v 4 20 1.5
v -2 20 0.5
v -1 20 0.5
v 1 20 0.5
v 2 20 0.5
v 3 20 0.5
v -3 20 -0.5
v -2 20 -0.5
v -1 20 -0.5
v 2 20 -0.5
v 3 20 -0.5
v 4 20 -0.5
v -2 20 -1.5
v -1 20 -1.5
v 2 20 -1.5
v 3 20 -1.5
v -1 21 2.5
v 0 21 2.5
v -1 21 1.5
v 0 21 1.5
v 1 21 -1.5
v 2 21 -1.5
v 1 21 -2.5
v 2 21 -2.5
v -5 22 -1.5
v 0 22 -1.5
v 1 22 -1.5
v -5 22 -2.5
v 1 22 -2.5
v 0 23 -0.5
v 2 23 -0.5
v 0 23 -1.5
v 2 23 -1.5
v -1 24 1.5
v 2 24 1.5
v -1 24 -0.5
v 2 24 -0.5

# faces
f 3/3/1 2/3/1 1/3/1
f 4/3/1 2/3/1 3/3/1
f 7/4/1 6/4/1 5/4/1
f 8/4/1 6/4/1 7/4/1
f 9/7/1 8/7/1 7/7/1
f 10/7/1 8/7/1 9/7/1
f 11/4/1 10/4/1 9/4/1
f 12/4/1 10/4/1 11/4/1
f 13/7/1 12/7/1 11/7/1
f 14/7/1 12/7/1 13/7/1
f 17/6/1 16/6/1 15/6/1
f 19/6/1 17/6/1 15/6/1
f 19/6/1 18/6/1 17/6/1
f 20/6/1 18/6/1 19/6/1
f 23/8/1 22/8/1 21/8/1
f 24/8/1 22/8/1 23/8/1
f 25/6/1 24/6/1 23/6/1
f 26/6/1 24/6/1 25/6/1
f 27/8/1 26/8/1 25/8/1
f 28/8/1 26/8/1 27/8/1
f 30/2/1 28/2/1 27/2/1
f 30/2/1 29/2/1 28/2/1
f 31/2/1 29/2/1 30/2/1
f 32/7/1 31/7/1 30/7/1
f 33/7/1 31/7/1 32/7/1
f 35/7/1 32/7/1 30/7/1
f 36/7/1 32/7/1 35/7/1
f 37/7/1 34/7/1 33/7/1
f 38/7/1 34/7/1 37/7/1
f 39/7/1 38/7/1 37/7/1
f 40/7/1 38/7/1 39/7/1
f 41/6/1 40/6/1 39/6/1
f 42/6/1 40/6/1 41/6/1
f 47/7/1 44/7/1 43/7/1
f 48/7/1 44/7/1 47/7/1
f 49/9/1 48/9/1 47/9/1
f 50/9/1 48/9/1 49/9/1
f 51/7/1 46/7/1 45/7/1
f 52/7/1 50/7/1 49/7/1
f 53/7/1 50/7/1 52/7/1
f 54/7/1 51/7/1 45/7/1
f 55/7/1 51/7/1 54/7/1
f 56/9/1 53/9/1 52/9/1
f 57/9/1 53/9/1 56/9/1
f 58/8/1 57/8/1 56/8/1
f 59/8/1 58/8/1 56/8/1
f 62/8/1 59/8/1 56/8/1
f 62/8/1 61/8/1 60/8/1
f 62/8/1 60/8/1 59/8/1
f 63/8/1 61/8/1 62/8/1
f 64/8/1 61/8/1 63/8/1
f 65/8/1 61/8/1 64/8/1
f 68/8/1 67/8/1 66/8/1
f 69/8/1 68/8/1 66/8/1
f 70/8/1 69/8/1 66/8/1
f 71/8/1 69/8/1 70/8/1
f 74/6/1 73/6/1 72/6/1
f 75/6/1 73/6/1 74/6/1
f 78/8/1 77/8/1 76/8/1
f 79/8/1 77/8/1 78/8/1
f 80/6/1 79/6/1 78/6/1
f 81/6/1 79/6/1 80/6/1
f 82/8/1 81/8/1 80/8/1
f 83/8/1 81/8/1 82/8/1
f 86/4/1 85/4/1 84/4/1
f 87/4/1 85/4/1 86/4/1
f 88/7/1 87/7/1 86/7/1
f 89/7/1 87/7/1 88/7/1
f 90/4/1 89/4/1 88/4/1
f 91/4/1 89/4/1 90/4/1
f 92/4/2 93/4/2 94/4/2
f 94/4/2 93/4/2 95/4/2
f 94/7/2 95/7/2 96/7/2
f 96/7/2 95/7/2 97/7/2
f 96/4/2 97/4/2 98/4/2
f 98/4/2 97/4/2 99/4/2
f 100/8/2 101/8/2 102/8/2
f 102/8/2 101/8/2 103/8/2
f 102/6/2 103/6/2 104/6/2
f 104/6/2 103/6/2 105/6/2
f 104/8/2 105/8/2 106/8/2
f 106/8/2 105/8/2 107/8/2
f 108/6/2 109/6/2 110/6/2
f 110/6/2 109/6/2 111/6/2
f 112/8/2 113/8/2 114/8/2
f 112/8/2 114/8/2 116/8/2
f 114/6/2 115/6/2 116/6/2
f 116/6/2 115/6/2 117/6/2
f 112/8/2 116/8/2 118/8/2
f 116/8/2 117/8/2 118/8/2
f 118/8/2 117/8/2 119/8/2
f 119/8/2 117/8/2 120/8/2
f 121/3/2 122/3/2 123/3/2
f 123/3/2 122/3/2 124/3/2
f 125/3/2 126/3/2 127/3/2
f 127/3/2 126/3/2 128/3/2
f 129/7/2 130/7/2 133/7/2
f 133/7/2 130/7/2 134/7/2
f 133/9/2 134/9/2 135/9/2
f 135/9/2 134/9/2 136/9/2
f 135/7/2 136/7/2 137/7/2
f 137/7/2 136/7/2 138/7/2
f 131/7/2 132/7/2 139/7/2
f 139/7/2 132/7/2 140/7/2
f 137/9/2 138/9/2 142/9/2
f 142/9/2 138/9/2 143/9/2
f 140/8/2 141/8/2 144/8/2
f 144/8/2 141/8/2 147/8/2
f 145/8/2 146/8/2 149/8/2
f 146/8/2 147/8/2 149/8/2
f 149/8/2 147/8/2 150/8/2
f 147/8/2 141/8/2 151/8/2
f 150/8/2 147/8/2 151/8/2
f 151/8/2 141/8/2 152/8/2
f 149/4/2 150/4/2 153/4/2
f 148/4/2 149/4/2 153/4/2
f 150/8/2 151/8/2 154/8/2
f 153/4/2 150/4/2 154/4/2
f 154/8/2 151/8/2 155/8/2
f 153/8/2 154/8/2 156/8/2
f 156/8/2 154/8/2 157/8/2
f 158/8/2 159/8/2 160/8/2
f 160/8/2 159/8/2 161/8/2
f 160/6/2 161/6/2 162/6/2
f 162/6/2 161/6/2 163/6/2
f 162/8/2 163/8/2 164/8/2
f 164/8/2 163/8/2 165/8/2
f 164/2/2 165/2/2 167/2/2
f 165/2/2 166/2/2 167/2/2
f 167/2/2 166/2/2 168/2/2
f 167/7/2 168/7/2 169/7/2
f 169/7/2 168/7/2 170/7/2
f 167/7/2 169/7/2 172/7/2
f 172/7/2 169/7/2 173/7/2
f 170/7/2 171/7/2 174/7/2
f 174/7/2 171/7/2 175/7/2
f 175/7/2 171/7/2 176/7/2
f 175/6/2 176/6/2 177/6/2
f 177/6/2 176/6/2 178/6/2
f 179/6/2 180/6/2 181/6/2
f 179/6/2 181/6/2 183/6/2
f 181/6/2 182/6/2 183/6/2
f 183/6/2 182/6/2 184/6/2
f 185/4/2 186/4/2 187/4/2
f 187/4/2 186/4/2 188/4/2
f 187/7/2 188/7/2 189/7/2
f 189/7/2 188/7/2 190/7/2
f 189/4/2 190/4/2 191/4/2
f 191/4/2 190/4/2 192/4/2
f 191/7/2 192/7/2 193/7/2
f 193/7/2 192/7/2 194/7/2
f 201/7/3 196/7/3 195/7/3
f 201/9/3 197/9/3 196/9/3
f 202/7/3 198/7/3 197/7/3
f 202/9/3 197/9/3 201/9/3
f 203/9/3 199/9/3 198/9/3
f 203/7/3 198/7/3 202/7/3
f 204/8/3 200/8/3 199/8/3
f 204/9/3 199/9/3 203/9/3
f 205/8/3 200/8/3 204/8/3
f 206/7/3 203/7/3 202/7/3
f 206/7/3 202/7/3 201/7/3
f 206/7/3 201/7/3 195/7/3
f 207/7/3 203/7/3 206/7/3
f 208/8/3 204/8/3 203/8/3
f 208/7/3 203/7/3 207/7/3
f 209/8/3 204/8/3 208/8/3
f 210/7/3 206/7/3 195/7/3
f 211/9/3 207/9/3 206/9/3
f 211/7/3 206/7/3 210/7/3
f 212/7/3 208/7/3 207/7/3
f 212/9/3 207/9/3 211/9/3
f 213/9/3 209/9/3 208/9/3
f 213/7/3 208/7/3 212/7/3
f 214/9/3 209/9/3 213/9/3
f 222/6/3 216/6/3 215/6/3
f 223/6/3 216/6/3 222/6/3
f 224/8/3 218/8/3 217/8/3
f 225/6/3 219/6/3 218/6/3
f 225/8/3 218/8/3 224/8/3
f 226/8/3 220/8/3 219/8/3
f 226/6/3 219/6/3 225/6/3
f 227/2/3 221/2/3 220/2/3
f 227/8/3 220/8/3 226/8/3
f 228/7/3 222/7/3 221/7/3
f 228/2/3 221/2/3 227/2/3
f 229/7/3 222/7/3 228/7/3
f 230/7/3 222/7/3 229/7/3
f 231/7/3 222/7/3 230/7/3
f 232/1/3 223/1/3 222/1/3
f 232/7/3 222/7/3 231/7/3
f 233/6/3 216/6/3 223/6/3
f 233/1/3 223/1/3 232/1/3
f 234/6/3 216/6/3 233/6/3
f 239/8/3 236/8/3 235/8/3
f 240/8/3 236/8/3 239/8/3
f 241/4/3 238/4/3 237/4/3
f 242/4/3 238/4/3 241/4/3
f 247/2/3 228/2/3 227/2/3
f 248/2/3 228/2/3 247/2/3
f 252/6/3 242/6/3 241/6/3
f 252/6/3 243/6/3 242/6/3
f 253/6/3 243/6/3 252/6/3
f 254/4/3 240/4/3 239/4/3
f 255/8/3 236/8/3 240/8/3
f 255/4/3 240/4/3 254/4/3
f 256/8/3 236/8/3 255/8/3
f 257/8/3 245/8/3 244/8/3
f 258/6/3 246/6/3 245/6/3
f 258/8/3 245/8/3 257/8/3
f 259/8/3 247/8/3 246/8/3
f 259/6/3 246/6/3 258/6/3
f 260/2/3 248/2/3 247/2/3
f 260/8/3 247/8/3 259/8/3
f 261/7/3 251/7/3 250/7/3
f 261/2/3 248/2/3 260/2/3
f 261/7/3 250/7/3 249/7/3
f 261/7/3 249/7/3 248/7/3
f 261/7/3 252/7/3 251/7/3
f 262/1/3 253/1/3 252/1/3
f 262/7/3 252/7/3 261/7/3
f 263/6/3 243/6/3 253/6/3
f 263/1/3 253/1/3 262/1/3
f 264/6/3 263/6/3 262/6/3
f 265/6/3 243/6/3 263/6/3
f 265/6/3 263/6/3 264/6/3
f 271/4/3 267/4/3 266/4/3
f 272/7/3 268/7/3 267/7/3
f 272/4/3 267/4/3 271/4/3
f 273/4/3 269/4/3 268/4/3
f 273/7/3 268/7/3 272/7/3
f 274/7/3 270/7/3 269/7/3
f 274/4/3 269/4/3 273/4/3
f 275/7/3 270/7/3 274/7/3
f 276/7/3 270/7/3 275/7/3
f 277/6/3 275/6/3 274/6/3
f 278/6/3 275/6/3 277/6/3
f 282/4/3 280/4/3 279/4/3
f 282/4/3 281/4/3 280/4/3
f 283/4/3 281/4/3 282/4/3
f 284/4/3 281/4/3 283/4/3
f 285/8/3 284/8/3 283/8/3
f 286/8/3 284/8/3 285/8/3
f 292/6/3 288/6/3 287/6/3
f 293/6/3 288/6/3 292/6/3
f 295/4/3 290/4/3 289/4/3
f 296/7/3 291/7/3 290/7/3
f 296/4/3 290/4/3 295/4/3
f 297/4/3 292/4/3 291/4/3
f 297/7/3 291/7/3 296/7/3
f 298/7/3 294/7/3 293/7/3
f 298/4/3 292/4/3 297/4/3
f 298/7/3 293/7/3 292/7/3
f 299/7/3 294/7/3 298/7/3
f 302/3/3 301/3/3 300/3/3
f 303/3/3 301/3/3 302/3/3
f 304/5/3 303/5/3 302/5/3
f 305/5/3 303/5/3 304/5/3
f 306/3/3 302/3/3 300/3/3
f 306/5/3 304/5/3 302/5/3
f 307/3/3 305/3/3 304/3/3
f 307/5/3 304/5/3 306/5/3
f 308/3/3 305/3/3 307/3/3
f 309/5/3 303/5/3 305/5/3
f 309/3/3 305/3/3 308/3/3
f 310/3/3 306/3/3 300/3/3
f 311/3/3 306/3/3 310/3/3
f 313/5/3 303/5/3 309/5/3
f 314/5/3 313/5/3 312/5/3
f 315/5/3 303/5/3 313/5/3
f 315/5/3 313/5/3 314/5/3
f 315/3/3 301/3/3 303/3/3
f 316/3/3 301/3/3 315/3/3
f 317/8/4 318/8/4 321/8/4
f 318/6/4 319/6/4 322/6/4
f 321/8/4 318/8/4 322/8/4
f 319/8/4 320/8/4 323/8/4
f 322/6/4 319/6/4 323/6/4
f 323/8/4 320/8/4 324/8/4
f 325/8/4 326/8/4 329/8/4
f 326/6/4 327/6/4 330/6/4
f 329/8/4 326/8/4 330/8/4
f 327/8/4 328/8/4 331/8/4
f 330/6/4 327/6/4 331/6/4
f 331/8/4 328/8/4 332/8/4
f 333/4/4 334/4/4 338/4/4
f 334/7/4 335/7/4 339/7/4
f 338/4/4 334/4/4 339/4/4
f 335/4/4 336/4/4 340/4/4
f 339/7/4 335/7/4 340/7/4
f 336/7/4 337/7/4 341/7/4
f 340/4/4 336/4/4 341/4/4
f 341/7/4 337/7/4 342/7/4
f 342/7/4 337/7/4 343/7/4
f 341/6/4 342/6/4 347/6/4
f 342/7/4 343/7/4 348/7/4
f 347/6/4 342/6/4 348/6/4
f 343/6/4 344/6/4 349/6/4
f 348/7/4 343/7/4 349/7/4
f 349/6/4 344/6/4 350/6/4
f 346/7/4 347/7/4 351/7/4
f 345/2/4 346/2/4 351/2/4
f 351/7/4 347/7/4 352/7/4
f 353/8/4 354/8/4 356/8/4
f 354/8/4 355/8/4 356/8/4
f 356/8/4 355/8/4 357/8/4
f 345/2/4 351/2/4 358/2/4
f 357/8/4 355/8/4 360/8/4
f 360/8/4 355/8/4 361/8/4
f 345/2/4 358/2/4 362/2/4
f 358/7/4 359/7/4 363/7/4
f 362/2/4 358/2/4 363/2/4
f 363/7/4 359/7/4 364/7/4
f 364/6/4 365/6/4 371/6/4
f 365/7/4 366/7/4 372/7/4
f 371/6/4 365/6/4 372/6/4
f 366/6/4 367/6/4 373/6/4
f 372/7/4 366/7/4 373/7/4
f 373/6/4 367/6/4 374/6/4
f 368/4/4 369/4/4 375/4/4
f 369/7/4 370/7/4 376/7/4
f 375/4/4 369/4/4 376/4/4
f 370/4/4 371/4/4 377/4/4
f 376/7/4 370/7/4 377/7/4
f 371/7/4 372/7/4 378/7/4
f 377/4/4 371/4/4 378/4/4
f 372/7/4 373/7/4 378/7/4
f 378/7/4 373/7/4 379/7/4
f 380/7/4 381/7/4 384/7/4
f 382/8/4 383/8/4 387/8/4
f 384/7/4 385/7/4 388/7/4
f 380/7/4 384/7/4 388/7/4
f 388/7/4 385/7/4 389/7/4
f 386/8/4 387/8/4 392/8/4
f 387/8/4 383/8/4 393/8/4
f 392/8/4 387/8/4 393/8/4
f 389/7/4 390/7/4 394/7/4
f 390/6/4 391/6/4 395/6/4
f 394/7/4 390/7/4 395/7/4
f 395/6/4 391/6/4 396/6/4
f 397/3/4 398/3/4 399/3/4
f 399/3/4 398/3/4 400/3/4
f 399/5/4 400/5/4 401/5/4
f 401/5/4 400/5/4 402/5/4
f 399/5/4 401/5/4 403/5/4
f 401/3/4 402/3/4 403/3/4
f 402/5/4 400/5/4 404/5/4
f 403/3/4 402/3/4 404/3/4
f 397/3/4 399/3/4 405/3/4
f 399/5/4 403/5/4 405/5/4
f 403/5/4 404/5/4 405/5/4
f 404/5/4 400/5/4 406/5/4
f 405/5/4 404/5/4 406/5/4
f 400/3/4 398/3/4 406/3/4
f 397/3/4 405/3/4 407/3/4
f 405/3/4 406/3/4 407/3/4
f 407/3/4 406/3/4 408/3/4
f 406/3/4 398/3/4 409/3/4
f 408/3/4 406/3/4 409/3/4
f 409/3/4 398/3/4 410/3/4
f 408/8/4 409/8/4 411/8/4
f 411/8/4 409/8/4 412/8/4
f 417/8/5 414/8/5 413/8/5
f 418/8/5 414/8/5 417/8/5
f 419/8/5 416/8/5 415/8/5
f 420/8/5 416/8/5 419/8/5
f 425/4/5 422/4/5 421/4/5
f 426/4/5 422/4/5 425/4/5
f 427/4/5 424/4/5 423/4/5
f 428/4/5 424/4/5 427/4/5
f 432/2/5 430/2/5 429/2/5
f 433/2/5 430/2/5 432/2/5
f 435/2/5 432/2/5 431/2/5
f 435/2/5 434/2/5 433/2/5
f 435/2/5 433/2/5 432/2/5
f 436/2/5 434/2/5 435/2/5
f 439/7/5 438/7/5 437/7/5
f 440/7/5 438/7/5 439/7/5
f 443/7/5 442/7/5 441/7/5
f 444/7/5 442/7/5 443/7/5
f 448/3/5 446/3/5 445/3/5
f 448/3/5 447/3/5 446/3/5
f 449/3/5 447/3/5 448/3/5
f 454/6/5 451/6/5 450/6/5
f 455/6/5 451/6/5 454/6/5
f 458/6/5 453/6/5 452/6/5
f 459/6/5 453/6/5 458/6/5
f 460/7/5 456/7/5 455/7/5
f 461/7/5 456/7/5 460/7/5
f 463/7/5 458/7/5 457/7/5
f 464/7/5 458/7/5 463/7/5
f 465/8/5 463/8/5 462/8/5
f 466/8/5 463/8/5 465/8/5
f 471/6/5 468/6/5 467/6/5
f 472/6/5 468/6/5 471/6/5
f 473/6/5 470/6/5 469/6/5
f 474/6/5 470/6/5 473/6/5
f 477/4/5 476/4/5 475/4/5
f 478/4/5 476/4/5 477/4/5
f 479/4/5 476/4/5 478/4/5
f 480/8/6 481/8/6 483/8/6
f 481/9/6 482/9/6 484/9/6
f 483/8/6 481/8/6 484/8/6
f 484/9/6 482/9/6 485/9/6
f 486/4/6 487/4/6 490/4/6
f 490/4/6 487/4/6 491/4/6
f 488/7/6 489/7/6 494/7/6
f 494/7/6 489/7/6 495/7/6
f 492/7/6 493/7/6 498/7/6
f 498/7/6 493/7/6 499/7/6
f 496/7/6 497/7/6 500/7/6
f 500/7/6 497/7/6 501/7/6
f 502/6/6 503/6/6 506/6/6
f 506/6/6 503/6/6 507/6/6
f 504/6/6 505/6/6 508/6/6
f 508/6/6 505/6/6 509/6/6
f 509/6/6 505/6/6 510/6/6
f 502/6/6 506/6/6 511/6/6
f 506/4/6 507/4/6 512/4/6
f 511/6/6 506/6/6 512/6/6
f 512/4/6 507/4/6 513/4/6
f 509/4/6 510/4/6 514/4/6
f 510/6/6 505/6/6 515/6/6
f 514/4/6 510/4/6 515/4/6
f 515/6/6 505/6/6 516/6/6
f 512/6/6 513/6/6 517/6/6
f 517/6/6 513/6/6 518/6/6
f 514/6/6 515/6/6 519/6/6
f 519/6/6 515/6/6 520/6/6
f 521/8/6 522/8/6 523/8/6
f 523/8/6 522/8/6 524/8/6
f 525/8/6 526/8/6 527/8/6
f 527/8/6 526/8/6 528/8/6
f 529/3/6 530/3/6 532/3/6
f 530/3/6 531/3/6 532/3/6
f 532/3/6 531/3/6 533/3/6
f 534/8/6 535/8/6 536/8/6
f 536/8/6 535/8/6 537/8/6
f 538/8/6 539/8/6 540/8/6
f 540/8/6 539/8/6 541/8/6
