# This file uses centimeters as units for non-parametric coordinates.

mtllib texture-room.mtl
g default
v 0.000000 -0.000000 4.000000
v 2.000000 -0.000000 4.000000
v 0.000000 0.000000 0.000000
v 2.000000 0.000000 0.000000
vt 0.000000 0.000000
vt 0.500000 0.000000
vt 0.000000 1.000000
vt 0.500000 1.000000
vn 0.000000 1.000000 0.000000
vn 0.000000 1.000000 0.000000
vn 0.000000 1.000000 0.000000
vn 0.000000 1.000000 0.000000
g pPlane1
usemtl phong5SG
f 1/1/1 2/2/2 4/4/3 3/3/4
g default
v -2.000000 -0.000000 4.000000
v 0.000000 -0.000000 4.000000
v -2.000000 0.000000 0.000000
v 0.000000 0.000000 0.000000
vt 0.000000 0.000000
vt 0.500000 0.000000
vt 0.000000 1.000000
vt 0.500000 1.000000
vn 0.000000 1.000000 0.000000
vn 0.000000 1.000000 0.000000
vn 0.000000 1.000000 0.000000
vn 0.000000 1.000000 0.000000
g pPlane2
usemtl phong3SG
f 5/5/5 6/6/6 8/8/7 7/7/8
g default
v -2.000000 2.000000 4.000000
v -2.000000 0.000000 4.000000
v -2.000000 2.000000 0.000000
v -2.000000 0.000000 0.000000
vt 0.002075 0.945037
vt 0.003741 0.445039
vt 1.002069 0.948369
vt 1.003735 0.448371
vn 1.000000 0.000000 0.000000
vn 1.000000 0.000000 0.000000
vn 1.000000 0.000000 0.000000
vn 1.000000 0.000000 0.000000
g pPlane3
usemtl phong2SG
f 9/9/9 10/10/10 12/12/11 11/11/12
g default
v 2.000000 0.000000 4.000000
v 2.000000 2.000000 4.000000
v 2.000000 0.000000 0.000000
v 2.000000 2.000000 0.000000
vt 0.014148 0.932658
vt 0.014143 0.432658
vt 1.014148 0.932649
vt 1.014143 0.432649
vn -1.000000 0.000000 0.000000
vn -1.000000 0.000000 0.000000
vn -1.000000 0.000000 0.000000
vn -1.000000 0.000000 0.000000
g pPlane4
usemtl phong4SG
f 13/13/13 14/14/14 16/16/15 15/15/16
g default
v -2.000000 0.000000 0.000000
v 0.000000 0.000000 0.000000
v -2.000000 2.000000 0.000000
v 0.000000 2.000000 0.000000
vt 0.006168 0.000548
vt 0.555463 0.000548
vt 0.006168 0.549843
vt 0.555463 0.549843
vn 0.000000 0.000000 1.000000
vn 0.000000 0.000000 1.000000
vn 0.000000 0.000000 1.000000
vn 0.000000 0.000000 1.000000
g pPlane5
usemtl phong2SG
f 17/17/17 18/18/18 20/20/19 19/19/20
g default
v 0.000000 2.000000 4.000000
v 2.000000 2.000000 4.000000
v 0.000000 0.000000 4.000000
v 2.000000 0.000000 4.000000
vt 0.250391 0.250391
vt 0.749609 0.250391
vt 0.250391 0.749609
vt 0.749609 0.749609
vn 0.000000 0.000000 -1.000000
vn 0.000000 0.000000 -1.000000
vn 0.000000 0.000000 -1.000000
vn 0.000000 0.000000 -1.000000
g pPlane6
usemtl phong4SG
f 21/21/21 22/22/22 24/24/23 23/23/24
g default
v 0.000000 0.000000 0.000000
v 2.000000 0.000000 0.000000
v 0.000000 2.000000 0.000000
v 2.000000 2.000000 0.000000
vt 0.250391 0.250391
vt 0.749609 0.250391
vt 0.250391 0.749609
vt 0.749609 0.749609
vn 0.000000 0.000000 1.000000
vn 0.000000 0.000000 1.000000
vn 0.000000 0.000000 1.000000
vn 0.000000 0.000000 1.000000
g pPlane7
usemtl phong4SG
f 25/25/25 26/26/26 28/28/27 27/27/28
g default
v -2.000000 2.000000 4.000000
v 0.000000 2.000000 4.000000
v -2.000000 0.000000 4.000000
v 0.000000 0.000000 4.000000
vt 0.006168 0.000548
vt 0.555463 0.000548
vt 0.006168 0.549843
vt 0.555463 0.549843
vn 0.000000 0.000000 -1.000000
vn 0.000000 0.000000 -1.000000
vn 0.000000 0.000000 -1.000000
vn 0.000000 0.000000 -1.000000
g pPlane8
usemtl phong2SG
f 29/29/29 30/30/30 32/32/31 31/31/32
